<svg width="55" height="32" viewBox="0 0 55 32" fill="none" xmlns="http://www.w3.org/2000/svg">
<path fill-rule="evenodd" clip-rule="evenodd" d="M42.7715 27.9914V28.0553H42.8303C42.8443 28.0553 42.8552 28.0525 42.8631 28.0474C42.8711 28.0422 42.8752 28.0341 42.8752 28.0229C42.8752 28.0123 42.8711 28.0044 42.8631 27.9993C42.8552 27.9941 42.8443 27.9914 42.8303 27.9914H42.7715ZM42.8314 27.9466C42.8623 27.9466 42.8861 27.9534 42.9028 27.9669C42.9198 27.9808 42.9282 27.9993 42.9282 28.0229C42.9282 28.0428 42.9211 28.0593 42.908 28.0721C42.8946 28.0849 42.8757 28.0928 42.8511 28.0957L42.9301 28.1862H42.8681L42.795 28.0963H42.7715V28.1862H42.7196V27.9466H42.8314ZM42.8161 28.2686C42.844 28.2686 42.8703 28.2631 42.894 28.2528C42.9187 28.2422 42.9394 28.2278 42.958 28.2096C42.9764 28.1917 42.9906 28.1702 43.0007 28.1457C43.0114 28.1213 43.0166 28.0952 43.0166 28.0672C43.0166 28.0395 43.0114 28.0134 43.0007 27.989C42.9906 27.9645 42.9764 27.943 42.958 27.9248C42.9394 27.9069 42.9187 27.8925 42.894 27.8822C42.8703 27.8718 42.844 27.8667 42.8161 27.8667C42.7877 27.8667 42.7609 27.8718 42.736 27.8822C42.7113 27.8925 42.6895 27.9069 42.6711 27.9248C42.6534 27.943 42.6389 27.9645 42.6282 27.989C42.6181 28.0134 42.6129 28.0395 42.6129 28.0672C42.6129 28.0952 42.6181 28.1213 42.6282 28.1457C42.6389 28.1702 42.6534 28.1917 42.6711 28.2096C42.6895 28.2278 42.7113 28.2422 42.736 28.2528C42.7609 28.2631 42.7877 28.2686 42.8161 28.2686ZM42.8161 27.8091C42.8522 27.8091 42.8869 27.8159 42.9189 27.8294C42.9509 27.8428 42.9788 27.8612 43.0029 27.8849C43.027 27.9082 43.0458 27.9357 43.0598 27.9669C43.0732 27.9985 43.0803 28.0319 43.0803 28.0672C43.0803 28.1028 43.0732 28.136 43.0598 28.1672C43.0458 28.1985 43.027 28.2259 43.0029 28.2493C42.9788 28.2727 42.9509 28.2911 42.9189 28.305C42.8869 28.3186 42.8522 28.3254 42.8161 28.3254C42.7786 28.3254 42.7436 28.3186 42.7113 28.305C42.6788 28.2911 42.6506 28.2727 42.6268 28.2493C42.6028 28.2259 42.5844 28.1985 42.5705 28.1672C42.5568 28.136 42.5497 28.1028 42.5497 28.0672C42.5497 28.0319 42.5568 27.9985 42.5705 27.9669C42.5844 27.9357 42.6028 27.9082 42.6268 27.8849C42.6506 27.8612 42.6788 27.8428 42.7113 27.8294C42.7436 27.8159 42.7786 27.8091 42.8161 27.8091ZM18.4261 26.8868C18.4261 26.4305 18.7269 26.0555 19.2192 26.0555C19.6897 26.0555 20.0067 26.4142 20.0067 26.8868C20.0067 27.3596 19.6897 27.7183 19.2192 27.7183C18.7269 27.7183 18.4261 27.3433 18.4261 26.8868ZM20.5427 26.8868V25.5881H19.9738V25.9033C19.7936 25.6697 19.5201 25.5229 19.1481 25.5229C18.4151 25.5229 17.841 26.0936 17.841 26.8868C17.841 27.6803 18.4151 28.2509 19.1481 28.2509C19.5201 28.2509 19.7936 28.1042 19.9738 27.8705V28.1857H20.5427V26.8868ZM39.7512 26.8868C39.7512 26.4305 40.0521 26.0555 40.5444 26.0555C41.0145 26.0555 41.3318 26.4142 41.3318 26.8868C41.3318 27.3596 41.0145 27.7183 40.5444 27.7183C40.0521 27.7183 39.7512 27.3433 39.7512 26.8868ZM41.8679 26.8868V24.5449H41.299V25.9033C41.1185 25.6697 40.845 25.5229 40.4733 25.5229C39.7403 25.5229 39.1659 26.0936 39.1659 26.8868C39.1659 27.6803 39.7403 28.2509 40.4733 28.2509C40.845 28.2509 41.1185 28.1042 41.299 27.8705V28.1857H41.8679V26.8868ZM27.5983 26.0283C27.9648 26.0283 28.1998 26.2566 28.2599 26.6588H26.9036C26.9638 26.2838 27.1935 26.0283 27.5983 26.0283ZM27.6093 25.5229C26.8434 25.5229 26.3074 26.0773 26.3074 26.8868C26.3074 27.7129 26.8653 28.2509 27.6475 28.2509C28.0414 28.2509 28.4021 28.1528 28.7194 27.8868L28.4404 27.4683C28.2216 27.6422 27.9429 27.74 27.6804 27.74C27.3139 27.74 26.9802 27.5716 26.8981 27.1042H28.8398C28.8452 27.0335 28.8507 26.9629 28.8507 26.8868C28.8452 26.0773 28.342 25.5229 27.6093 25.5229ZM34.4731 26.8868C34.4731 26.4305 34.774 26.0555 35.2663 26.0555C35.7367 26.0555 36.054 26.4142 36.054 26.8868C36.054 27.3596 35.7367 27.7183 35.2663 27.7183C34.774 27.7183 34.4731 27.3433 34.4731 26.8868ZM36.59 26.8868V25.5881H36.0212V25.9033C35.8406 25.6697 35.5671 25.5229 35.1952 25.5229C34.4622 25.5229 33.8881 26.0936 33.8881 26.8868C33.8881 27.6803 34.4622 28.2509 35.1952 28.2509C35.5671 28.2509 35.8406 28.1042 36.0212 27.8705V28.1857H36.59V26.8868ZM31.2627 26.8868C31.2627 27.6748 31.8152 28.2509 32.6573 28.2509C33.0512 28.2509 33.3137 28.164 33.5982 27.9411L33.3247 27.4846C33.1113 27.6368 32.8871 27.7183 32.6409 27.7183C32.1869 27.7129 31.8535 27.3868 31.8535 26.8868C31.8535 26.387 32.1869 26.061 32.6409 26.0555C32.8871 26.0555 33.1113 26.137 33.3247 26.2892L33.5982 25.8327C33.3137 25.6099 33.0512 25.5229 32.6573 25.5229C31.8152 25.5229 31.2627 26.099 31.2627 26.8868ZM38.5918 25.5229C38.2636 25.5229 38.0503 25.6751 37.9026 25.9033V25.5881H37.3392V28.1857H37.9081V26.7294C37.9081 26.3001 38.094 26.061 38.466 26.061C38.5809 26.061 38.7012 26.0773 38.8216 26.1262L38.9966 25.5936C38.8705 25.5447 38.7064 25.5229 38.5918 25.5229ZM23.3541 25.7947C23.0806 25.6153 22.7031 25.5229 22.2874 25.5229C21.6258 25.5229 21.1991 25.8381 21.1991 26.3544C21.1991 26.7781 21.5164 27.0389 22.1014 27.1205L22.3695 27.1585C22.6813 27.202 22.8289 27.2835 22.8289 27.4303C22.8289 27.6313 22.6211 27.7455 22.2327 27.7455C21.8391 27.7455 21.5547 27.6205 21.3632 27.4737L21.0952 27.914C21.407 28.1419 21.8008 28.2509 22.2272 28.2509C22.9821 28.2509 23.4197 27.8976 23.4197 27.4031C23.4197 26.9466 23.0751 26.7077 22.5062 26.6262L22.2382 26.5881C21.992 26.5555 21.7954 26.5066 21.7954 26.3327C21.7954 26.1425 21.9811 26.0283 22.2929 26.0283C22.6266 26.0283 22.9493 26.1533 23.1079 26.2512L23.3541 25.7947ZM30.6884 25.5229C30.3602 25.5229 30.1468 25.6751 29.9994 25.9033V25.5881H29.436V28.1857H30.0046V26.7294C30.0046 26.3001 30.1906 26.061 30.5626 26.061C30.6774 26.061 30.7978 26.0773 30.9181 26.1262L31.0932 25.5936C30.9673 25.5447 30.8032 25.5229 30.6884 25.5229ZM25.8372 25.5881H24.9073V24.8004H24.3329V25.5881H23.8026V26.1044H24.3329V27.289C24.3329 27.8922 24.5682 28.2509 25.241 28.2509C25.4871 28.2509 25.7716 28.1746 25.9518 28.0498L25.788 27.5661C25.6184 27.664 25.4324 27.7129 25.2847 27.7129C25.0003 27.7129 24.9073 27.539 24.9073 27.2781V26.1044H25.8372V25.5881ZM17.3378 28.1857V26.5555C17.3378 25.9414 16.9439 25.5283 16.3094 25.5229C15.976 25.5175 15.6314 25.6207 15.3907 25.9849C15.2102 25.6968 14.9258 25.5229 14.5264 25.5229C14.2475 25.5229 13.9742 25.6044 13.7609 25.9088V25.5881H13.192V28.1857H13.7664V26.7457C13.7664 26.2947 14.018 26.0555 14.4061 26.0555C14.7835 26.0555 14.975 26.3001 14.975 26.7403V28.1857H15.5494V26.7457C15.5494 26.2947 15.8119 26.0555 16.1891 26.0555C16.5775 26.0555 16.7634 26.3001 16.7634 26.7403V28.1857H17.3378Z" fill="#363639"/>
<path d="M31.7805 5.79297H23.1652V21.1753H31.7805V5.79297Z" fill="#F47D20"/>
<path fill-rule="evenodd" clip-rule="evenodd" d="M23.7122 13.4838C23.7122 10.3634 25.1828 7.58405 27.4729 5.79275C25.798 4.48297 23.6849 3.70117 21.388 3.70117C15.9504 3.70117 11.5426 8.08106 11.5426 13.4838C11.5426 18.8868 15.9504 23.2664 21.388 23.2664C23.6849 23.2664 25.798 22.4849 27.4729 21.1751C25.1828 19.3838 23.7122 16.6044 23.7122 13.4838Z" fill="#DE1F31"/>
<path fill-rule="evenodd" clip-rule="evenodd" d="M43.0958 19.5457V19.1661H42.9962L42.8813 19.4273L42.7662 19.1661H42.6666V19.5457H42.7372V19.2593L42.8447 19.5063H42.9177L43.0255 19.2588V19.5457H43.0958ZM42.464 19.5457V19.2308H42.5917V19.1667H42.2662V19.2308H42.3939V19.5457H42.464ZM43.4032 13.4838C43.4032 18.8868 38.9954 23.2664 33.5578 23.2664C31.2609 23.2664 29.1476 22.4849 27.4729 21.1751C29.763 19.3838 31.2336 16.6044 31.2336 13.4838C31.2336 10.3634 29.763 7.58405 27.4729 5.79275C29.1476 4.48297 31.2609 3.70117 33.5578 3.70117C38.9954 3.70117 43.4032 8.08106 43.4032 13.4838Z" fill="#F3A837"/>
</svg>
