<svg width="9" height="6" viewBox="0 0 9 6" fill="none" xmlns="http://www.w3.org/2000/svg">
<path d="M8.25001 5.3748C8.10398 5.37508 7.96246 5.32422 7.85001 5.23105L4.50001 2.43105L1.14376 5.13105C1.07983 5.18296 1.00627 5.22173 0.927308 5.24513C0.848346 5.26852 0.765539 5.27608 0.683646 5.26737C0.601753 5.25866 0.522389 5.23385 0.450117 5.19436C0.377844 5.15488 0.314086 5.1015 0.26251 5.0373C0.210593 4.97337 0.171824 4.89981 0.148429 4.82085C0.125034 4.74188 0.117476 4.65908 0.126188 4.57718C0.1349 4.49529 0.15971 4.41593 0.199194 4.34365C0.238678 4.27138 0.292056 4.20762 0.35626 4.15605L4.10626 1.1373C4.21809 1.04537 4.35837 0.995117 4.50314 0.995117C4.6479 0.995117 4.78818 1.04537 4.90001 1.1373L8.65001 4.2623C8.7133 4.31477 8.76561 4.3792 8.80396 4.45192C8.8423 4.52464 8.86592 4.6042 8.87347 4.68606C8.88102 4.76793 8.87234 4.85047 8.84794 4.92897C8.82354 5.00747 8.78389 5.08039 8.73126 5.14355C8.6731 5.21524 8.59978 5.27316 8.51657 5.31315C8.43336 5.35313 8.34233 5.37419 8.25001 5.3748Z" fill="#2C2C2C"/>
</svg>
