<svg width="9" height="6" viewBox="0 0 9 6" fill="none" xmlns="http://www.w3.org/2000/svg">
<path d="M4.49993 4.99981C4.3539 5.00009 4.21237 4.94923 4.09993 4.85606L0.349928 1.73106C0.222293 1.62497 0.142028 1.47252 0.12679 1.30726C0.111553 1.14199 0.162592 0.977441 0.268678 0.849806C0.374765 0.72217 0.527209 0.641905 0.692476 0.626668C0.857742 0.611431 1.02229 0.662469 1.14993 0.768556L4.49993 3.56856L7.84993 0.868556C7.91386 0.81664 7.98742 0.77787 8.06638 0.754475C8.14534 0.731081 8.22815 0.723522 8.31004 0.732234C8.39194 0.740946 8.4713 0.765756 8.54357 0.80524C8.61585 0.844724 8.6796 0.898102 8.73118 0.962306C8.78842 1.02657 8.83177 1.10196 8.85851 1.18376C8.88526 1.26555 8.89482 1.35199 8.88661 1.43766C8.87839 1.52332 8.85258 1.60637 8.81077 1.68159C8.76897 1.75681 8.71208 1.82259 8.64368 1.87481L4.89368 4.89356C4.778 4.972 4.63937 5.00941 4.49993 4.99981Z" fill="#2C2C2C"/>
</svg>
