<svg width="55" height="32" viewBox="0 0 55 32" fill="none" xmlns="http://www.w3.org/2000/svg">
<path fill-rule="evenodd" clip-rule="evenodd" d="M26.9921 10.2209L24.4291 22.3004H21.3292L23.8932 10.2209H26.9921ZM40.0323 18.0205L41.6639 13.485L42.6031 18.0205H40.0323ZM43.4908 22.3004H46.3575L43.8552 10.2209H41.2098C40.6147 10.2209 40.1131 10.5695 39.8904 11.1068L35.2397 22.3004H38.4935L39.1401 20.4959H43.1163L43.4908 22.3004ZM35.4008 18.3564C35.4146 15.1686 31.0282 14.9925 31.0586 13.5682C31.068 13.1351 31.4773 12.6746 32.3732 12.5567C32.8166 12.4983 34.0414 12.453 35.4288 13.0968L35.9735 10.5357C35.2271 10.2625 34.268 10 33.0736 10C30.0103 10 27.8538 11.6421 27.8365 13.9929C27.8161 15.7326 29.3754 16.7021 30.5503 17.2806C31.7573 17.8725 32.1622 18.2524 32.1578 18.7816C32.1487 19.5925 31.1946 19.9498 30.3026 19.964C28.7443 19.9883 27.8399 19.5393 27.1193 19.2007L26.5581 21.8478C27.2816 22.1828 28.6184 22.475 30.0048 22.4893C33.2611 22.4893 35.3907 20.8683 35.4008 18.3564ZM22.5631 10.2209L17.5414 22.3004H14.2652L11.7938 12.6601C11.6438 12.0666 11.5138 11.8487 11.0576 11.5992C10.3125 11.1911 9.08218 10.8087 8 10.5713L8.07299 10.2209H13.3471C14.0191 10.2209 14.6238 10.6716 14.7765 11.4524L16.0817 18.4427L19.3075 10.2209H22.5631Z" fill="url(#paint0_linear)"/>
<defs>
<linearGradient id="paint0_linear" x1="8" y1="16.2447" x2="46.3575" y2="16.2447" gradientUnits="userSpaceOnUse">
<stop stop-color="#231E5D"/>
<stop offset="1" stop-color="#074EA2"/>
</linearGradient>
</defs>
</svg>
