<svg width="24" height="24" viewBox="0 0 24 24" fill="none" xmlns="http://www.w3.org/2000/svg">
<mask id="path-1-inside-1_328:87" fill="white">
<path fill-rule="evenodd" clip-rule="evenodd" d="M18.7654 10.0321L20.7774 10.6321C20.8461 10.6614 20.9043 10.711 20.944 10.7743C20.9837 10.8375 21.0031 10.9114 20.9996 10.9861V13.032C20.9992 13.11 20.974 13.1857 20.9275 13.2483C20.8811 13.3109 20.8159 13.357 20.7413 13.38L18.7174 13.98C18.5767 14.457 18.3854 14.9176 18.1468 15.354L19.1438 17.214C19.1807 17.2836 19.1943 17.3631 19.1824 17.441C19.1705 17.5188 19.1338 17.5907 19.0777 17.646L17.6423 19.08C17.5869 19.136 17.5149 19.1727 17.437 19.1846C17.3591 19.1965 17.2795 19.1829 17.2099 19.146L15.3421 18.15C14.9069 18.386 14.4479 18.575 13.9727 18.714L13.3721 20.742C13.3491 20.8164 13.3029 20.8816 13.2403 20.928C13.1776 20.9744 13.1018 20.9996 13.0238 21H10.9938C10.9158 20.9996 10.84 20.9744 10.7773 20.928C10.7147 20.8816 10.6685 20.8164 10.6455 20.742L10.0449 18.72C9.56563 18.5817 9.10254 18.3927 8.66353 18.156L6.80772 19.146C6.73812 19.1829 6.65846 19.1965 6.58057 19.1846C6.50267 19.1727 6.43069 19.136 6.3753 19.08L4.9399 17.646C4.88384 17.5907 4.84714 17.5188 4.83524 17.441C4.82334 17.3631 4.83687 17.2836 4.87383 17.214L5.85879 15.33C5.60815 14.8873 5.40676 14.4185 5.25821 13.932L3.25825 13.332C3.18373 13.309 3.1185 13.2629 3.07205 13.2003C3.02561 13.1377 3.00036 13.062 3 12.984V10.9561C3.00036 10.8781 3.02561 10.8024 3.07205 10.7398C3.1185 10.6772 3.18373 10.631 3.25825 10.6081L5.24619 10.0081C5.39314 9.51333 5.59457 9.03642 5.84678 8.58606L4.87383 6.78607C4.83687 6.71654 4.82334 6.63696 4.83524 6.55914C4.84714 6.48132 4.88384 6.40941 4.9399 6.35408L6.39932 4.93208C6.45471 4.87608 6.52669 4.83942 6.60459 4.82753C6.68249 4.81564 6.76215 4.82916 6.83174 4.86608L8.63351 5.83808C9.08621 5.58571 9.56562 5.38447 10.0629 5.23808L10.6635 3.25809C10.6865 3.18364 10.7327 3.11848 10.7953 3.07208C10.858 3.02567 10.9338 3.00045 11.0118 3.00009H13.0418C13.1193 2.99836 13.1954 3.02124 13.2591 3.06544C13.3228 3.10965 13.3708 3.1729 13.3962 3.24609L13.9967 5.23208C14.4899 5.37925 14.9653 5.58048 15.4141 5.83208L17.2459 4.85408C17.3155 4.81716 17.3952 4.80364 17.4731 4.81553C17.551 4.82742 17.623 4.86408 17.6783 4.92008L19.1137 6.36008C19.1698 6.41541 19.2065 6.48732 19.2184 6.56514C19.2303 6.64296 19.2168 6.72254 19.1798 6.79207L18.1948 8.63406C18.435 9.07812 18.6263 9.54685 18.7654 10.0321ZM10.1916 14.7439C10.7349 15.1065 11.3735 15.3 12.0268 15.3C12.9029 15.3 13.7431 14.9524 14.3626 14.3335C14.982 13.7146 15.33 12.8753 15.33 12C15.33 11.3474 15.1363 10.7094 14.7734 10.1667C14.4104 9.624 13.8945 9.20103 13.2909 8.95126C12.6873 8.70149 12.0232 8.63614 11.3824 8.76347C10.7416 8.8908 10.153 9.2051 9.69109 9.66661C9.22912 10.1281 8.91452 10.7161 8.78706 11.3563C8.65961 11.9964 8.72502 12.6599 8.97504 13.2629C9.22505 13.8659 9.64843 14.3813 10.1916 14.7439Z"/>
</mask>
<path fill-rule="evenodd" clip-rule="evenodd" d="M18.7654 10.0321L20.7774 10.6321C20.8461 10.6614 20.9043 10.711 20.944 10.7743C20.9837 10.8375 21.0031 10.9114 20.9996 10.9861V13.032C20.9992 13.11 20.974 13.1857 20.9275 13.2483C20.8811 13.3109 20.8159 13.357 20.7413 13.38L18.7174 13.98C18.5767 14.457 18.3854 14.9176 18.1468 15.354L19.1438 17.214C19.1807 17.2836 19.1943 17.3631 19.1824 17.441C19.1705 17.5188 19.1338 17.5907 19.0777 17.646L17.6423 19.08C17.5869 19.136 17.5149 19.1727 17.437 19.1846C17.3591 19.1965 17.2795 19.1829 17.2099 19.146L15.3421 18.15C14.9069 18.386 14.4479 18.575 13.9727 18.714L13.3721 20.742C13.3491 20.8164 13.3029 20.8816 13.2403 20.928C13.1776 20.9744 13.1018 20.9996 13.0238 21H10.9938C10.9158 20.9996 10.84 20.9744 10.7773 20.928C10.7147 20.8816 10.6685 20.8164 10.6455 20.742L10.0449 18.72C9.56563 18.5817 9.10254 18.3927 8.66353 18.156L6.80772 19.146C6.73812 19.1829 6.65846 19.1965 6.58057 19.1846C6.50267 19.1727 6.43069 19.136 6.3753 19.08L4.9399 17.646C4.88384 17.5907 4.84714 17.5188 4.83524 17.441C4.82334 17.3631 4.83687 17.2836 4.87383 17.214L5.85879 15.33C5.60815 14.8873 5.40676 14.4185 5.25821 13.932L3.25825 13.332C3.18373 13.309 3.1185 13.2629 3.07205 13.2003C3.02561 13.1377 3.00036 13.062 3 12.984V10.9561C3.00036 10.8781 3.02561 10.8024 3.07205 10.7398C3.1185 10.6772 3.18373 10.631 3.25825 10.6081L5.24619 10.0081C5.39314 9.51333 5.59457 9.03642 5.84678 8.58606L4.87383 6.78607C4.83687 6.71654 4.82334 6.63696 4.83524 6.55914C4.84714 6.48132 4.88384 6.40941 4.9399 6.35408L6.39932 4.93208C6.45471 4.87608 6.52669 4.83942 6.60459 4.82753C6.68249 4.81564 6.76215 4.82916 6.83174 4.86608L8.63351 5.83808C9.08621 5.58571 9.56562 5.38447 10.0629 5.23808L10.6635 3.25809C10.6865 3.18364 10.7327 3.11848 10.7953 3.07208C10.858 3.02567 10.9338 3.00045 11.0118 3.00009H13.0418C13.1193 2.99836 13.1954 3.02124 13.2591 3.06544C13.3228 3.10965 13.3708 3.1729 13.3962 3.24609L13.9967 5.23208C14.4899 5.37925 14.9653 5.58048 15.4141 5.83208L17.2459 4.85408C17.3155 4.81716 17.3952 4.80364 17.4731 4.81553C17.551 4.82742 17.623 4.86408 17.6783 4.92008L19.1137 6.36008C19.1698 6.41541 19.2065 6.48732 19.2184 6.56514C19.2303 6.64296 19.2168 6.72254 19.1798 6.79207L18.1948 8.63406C18.435 9.07812 18.6263 9.54685 18.7654 10.0321ZM10.1916 14.7439C10.7349 15.1065 11.3735 15.3 12.0268 15.3C12.9029 15.3 13.7431 14.9524 14.3626 14.3335C14.982 13.7146 15.33 12.8753 15.33 12C15.33 11.3474 15.1363 10.7094 14.7734 10.1667C14.4104 9.624 13.8945 9.20103 13.2909 8.95126C12.6873 8.70149 12.0232 8.63614 11.3824 8.76347C10.7416 8.8908 10.153 9.2051 9.69109 9.66661C9.22912 10.1281 8.91452 10.7161 8.78706 11.3563C8.65961 11.9964 8.72502 12.6599 8.97504 13.2629C9.22505 13.8659 9.64843 14.3813 10.1916 14.7439Z" fill="white"/>
<path d="M20.7774 10.6321L21.1694 9.71209L21.1173 9.68992L21.0632 9.67376L20.7774 10.6321ZM18.7654 10.0321L17.8041 10.3076L17.955 10.8339L18.4796 10.9904L18.7654 10.0321ZM20.944 10.7743L20.0971 11.3059L20.0971 11.3059L20.944 10.7743ZM20.9996 10.9861L20.0007 10.9386L19.9996 10.9623V10.9861H20.9996ZM20.9996 13.032L21.9996 13.0367V13.032H20.9996ZM20.9275 13.2483L20.1245 12.6524L20.1245 12.6524L20.9275 13.2483ZM20.7413 13.38L21.0256 14.3389L21.0361 14.3356L20.7413 13.38ZM18.7174 13.98L18.4331 13.0213L17.9119 13.1758L17.7582 13.6972L18.7174 13.98ZM18.1468 15.354L17.2694 14.8742L17.0096 15.3493L17.2654 15.8265L18.1468 15.354ZM19.1438 17.214L20.0268 16.7447L20.0251 16.7416L19.1438 17.214ZM19.1824 17.441L18.1939 17.2898L18.1939 17.2898L19.1824 17.441ZM19.0777 17.646L18.3752 16.9343L18.371 16.9386L19.0777 17.646ZM17.6423 19.08L16.9355 18.3725L16.9313 18.3768L17.6423 19.08ZM17.437 19.1846L17.5879 20.1731L17.5879 20.1731L17.437 19.1846ZM17.2099 19.146L16.7394 20.0284L16.7413 20.0294L17.2099 19.146ZM15.3421 18.15L15.8126 17.2676L15.3381 17.0146L14.8654 17.2709L15.3421 18.15ZM13.9727 18.714L13.692 17.7542L13.1687 17.9073L13.0139 18.4301L13.9727 18.714ZM13.3721 20.742L14.3276 21.0374L14.331 21.026L13.3721 20.742ZM13.2403 20.928L13.8354 21.7316L13.8355 21.7316L13.2403 20.928ZM13.0238 21V22L13.0284 22L13.0238 21ZM10.9938 21L10.9892 22H10.9938V21ZM10.7773 20.928L10.1821 21.7316L10.1822 21.7316L10.7773 20.928ZM10.6455 20.742L9.6868 21.0268L9.69008 21.0373L10.6455 20.742ZM10.0449 18.72L11.0035 18.4353L10.8477 17.9108L10.3221 17.7592L10.0449 18.72ZM8.66353 18.156L9.13805 17.2758L8.66601 17.0213L8.19286 17.2737L8.66353 18.156ZM6.80772 19.146L7.27635 20.0294L7.27839 20.0283L6.80772 19.146ZM6.58057 19.1846L6.42967 20.1731L6.4297 20.1731L6.58057 19.1846ZM6.3753 19.08L7.08628 18.3768L7.08206 18.3726L6.3753 19.08ZM4.9399 17.646L5.64667 16.9386L5.64241 16.9343L4.9399 17.646ZM4.83524 17.441L5.82375 17.2898L5.82375 17.2898L4.83524 17.441ZM4.87383 17.214L5.75686 17.6834L5.76003 17.6773L4.87383 17.214ZM5.85879 15.33L6.74499 15.7933L6.99716 15.311L6.72901 14.8374L5.85879 15.33ZM5.25821 13.932L6.21461 13.64L6.05828 13.128L5.54556 12.9742L5.25821 13.932ZM3.25825 13.332L2.96344 14.2876L2.9709 14.2899L3.25825 13.332ZM3.07205 13.2003L2.26902 13.7962L2.26902 13.7962L3.07205 13.2003ZM3 12.984H1.99999L2.00001 12.9887L3 12.984ZM3 10.9561L2 10.9514V10.9561H3ZM3.07205 10.7398L2.26902 10.1438L3.07205 10.7398ZM3.25825 10.6081L2.9693 9.65069L2.96344 9.6525L3.25825 10.6081ZM5.24619 10.0081L5.53514 10.9654L6.05129 10.8096L6.2048 10.2928L5.24619 10.0081ZM5.84678 8.58606L6.71928 9.07469L6.98814 8.59461L6.72649 8.11055L5.84678 8.58606ZM4.87383 6.78607L3.99081 7.25545L3.99412 7.26158L4.87383 6.78607ZM4.83524 6.55914L3.84673 6.40797L3.84673 6.40797L4.83524 6.55914ZM4.9399 6.35408L4.24202 5.63783L4.23738 5.64241L4.9399 6.35408ZM6.39932 4.93208L7.09718 5.64831L7.1038 5.64187L7.1103 5.6353L6.39932 4.93208ZM6.60459 4.82753L6.75547 5.81608H6.75547L6.60459 4.82753ZM6.83174 4.86608L7.30654 3.98596L7.30039 3.9827L6.83174 4.86608ZM8.63351 5.83808L8.15872 6.71818L8.6414 6.97857L9.12043 6.71152L8.63351 5.83808ZM10.0629 5.23808L10.3453 6.19738L10.8632 6.04493L11.0198 5.52835L10.0629 5.23808ZM10.6635 3.25809L9.70808 2.96275L9.70654 2.96782L10.6635 3.25809ZM11.0118 3.00009V2.00008L11.0072 2.0001L11.0118 3.00009ZM13.0418 3.00009V4.00009H13.053L13.0642 3.99984L13.0418 3.00009ZM13.2591 3.06544L13.8294 2.24399L13.8294 2.24399L13.2591 3.06544ZM13.3962 3.24609L14.3533 2.95663L14.3475 2.93728L14.3409 2.9182L13.3962 3.24609ZM13.9967 5.23208L13.0396 5.52155L13.1953 6.03648L13.7108 6.19032L13.9967 5.23208ZM15.4141 5.83208L14.9252 6.70439L15.4025 6.97191L15.8851 6.71422L15.4141 5.83208ZM17.2459 4.85408L16.7773 3.9707L16.7749 3.97194L17.2459 4.85408ZM17.4731 4.81553L17.624 3.82698L17.624 3.82698L17.4731 4.81553ZM17.6783 4.92008L16.9674 5.6233L16.9701 5.62606L17.6783 4.92008ZM19.1137 6.36008L18.4055 7.06608L18.4112 7.07174L19.1137 6.36008ZM19.2184 6.56514L18.2299 6.7163L18.2299 6.71632L19.2184 6.56514ZM19.1798 6.79207L20.0617 7.26362L20.0628 7.26142L19.1798 6.79207ZM18.1948 8.63406L17.313 8.16252L17.0594 8.63674L17.3152 9.10977L18.1948 8.63406ZM14.7734 10.1667L13.9421 10.7226L13.9421 10.7226L14.7734 10.1667ZM13.2909 8.95126L12.9085 9.87527V9.87527L13.2909 8.95126ZM11.3824 8.76347L11.5773 9.74429H11.5773L11.3824 8.76347ZM9.69109 9.66661L10.3978 10.3741L10.3978 10.3741L9.69109 9.66661ZM8.78706 11.3563L9.76781 11.5515L8.78706 11.3563ZM8.97504 13.2629L8.05129 13.6459L8.05129 13.6459L8.97504 13.2629ZM21.0632 9.67376L19.0512 9.07376L18.4796 10.9904L20.4916 11.5904L21.0632 9.67376ZM21.791 10.2426C21.6427 10.0064 21.4257 9.82133 21.1694 9.71209L20.3854 11.552C20.2665 11.5014 20.1659 11.4156 20.0971 11.3059L21.791 10.2426ZM21.9985 11.0335C22.0117 10.7548 21.9393 10.4788 21.791 10.2426L20.0971 11.3059C20.0282 11.1963 19.9946 11.0681 20.0007 10.9386L21.9985 11.0335ZM21.9996 13.032V10.9861H19.9996V13.032H21.9996ZM21.7306 13.8443C21.9039 13.6106 21.9982 13.3277 21.9996 13.0367L19.9996 13.0274C20.0002 12.8922 20.044 12.7608 20.1245 12.6524L21.7306 13.8443ZM21.0361 14.3356C21.3139 14.2499 21.5572 14.0778 21.7306 13.8442L20.1245 12.6524C20.205 12.544 20.3178 12.4642 20.4465 12.4245L21.0361 14.3356ZM19.0016 14.9388L21.0256 14.3388L20.4571 12.4213L18.4331 13.0213L19.0016 14.9388ZM19.0242 15.8338C19.297 15.3349 19.5157 14.8082 19.6765 14.2628L17.7582 13.6972C17.6377 14.1058 17.4739 14.5004 17.2694 14.8742L19.0242 15.8338ZM20.0251 16.7416L19.0282 14.8816L17.2654 15.8265L18.2624 17.6864L20.0251 16.7416ZM20.1709 17.5921C20.2153 17.3015 20.1648 17.0042 20.0268 16.7447L18.2608 17.6834C18.1967 17.5629 18.1732 17.4248 18.1939 17.2898L20.1709 17.5921ZM19.7802 18.3577C19.9894 18.1512 20.1264 17.8828 20.1709 17.5921L18.1939 17.2898C18.2145 17.1548 18.2782 17.0301 18.3752 16.9343L19.7802 18.3577ZM18.3491 19.7875L19.7845 18.3535L18.371 16.9386L16.9355 18.3726L18.3491 19.7875ZM17.5879 20.1731C17.8782 20.1288 18.1466 19.9921 18.3533 19.7832L16.9313 18.3768C17.0272 18.2799 17.1516 18.2165 17.2861 18.196L17.5879 20.1731ZM16.7413 20.0294C17.0007 20.167 17.2976 20.2174 17.5879 20.1731L17.2862 18.196C17.4207 18.1755 17.5582 18.1988 17.6785 18.2626L16.7413 20.0294ZM14.8715 19.0324L16.7394 20.0284L17.6804 18.2636L15.8126 17.2676L14.8715 19.0324ZM14.2535 19.6738C14.7966 19.5149 15.3213 19.2988 15.8187 19.0291L14.8654 17.2709C14.4925 17.4731 14.0992 17.6351 13.692 17.7542L14.2535 19.6738ZM14.331 21.026L14.9316 18.998L13.0139 18.4301L12.4133 20.458L14.331 21.026ZM13.8355 21.7316C14.0691 21.5585 14.2416 21.3154 14.3275 21.0373L12.4167 20.4467C12.4567 20.3175 12.5367 20.2047 12.6451 20.1244L13.8355 21.7316ZM13.0284 22C13.3191 21.9986 13.6018 21.9047 13.8354 21.7316L12.6451 20.1244C12.7535 20.0442 12.8845 20.0006 13.0191 20L13.0284 22ZM10.9938 22H13.0238V20H10.9938V22ZM10.1822 21.7316C10.4158 21.9047 10.6985 21.9986 10.9892 22L10.9985 20C11.1331 20.0006 11.2641 20.0442 11.3725 20.1244L10.1822 21.7316ZM9.69008 21.0373C9.77602 21.3154 9.94847 21.5585 10.1821 21.7316L11.3725 20.1244C11.4809 20.2047 11.5609 20.3175 11.6009 20.4467L9.69008 21.0373ZM9.08628 19.0047L9.68686 21.0267L11.6041 20.4573L11.0035 18.4353L9.08628 19.0047ZM8.18902 19.0363C8.69075 19.3067 9.21998 19.5228 9.76769 19.6808L10.3221 17.7592C9.91127 17.6407 9.51433 17.4786 9.13805 17.2758L8.18902 19.0363ZM7.27839 20.0283L9.13421 19.0383L8.19286 17.2737L6.33705 18.2637L7.27839 20.0283ZM6.4297 20.1731C6.72 20.2174 7.01689 20.167 7.27635 20.0294L6.33909 18.2626C6.45936 18.1988 6.59693 18.1755 6.73144 18.196L6.4297 20.1731ZM5.66432 19.7832C5.87096 19.9921 6.13938 20.1288 6.42967 20.1731L6.73146 18.196C6.86596 18.2165 6.99041 18.2799 7.08627 18.3768L5.66432 19.7832ZM4.23314 18.3535L5.66854 19.7875L7.08206 18.3726L5.64665 16.9386L4.23314 18.3535ZM3.84673 17.5921C3.89118 17.8828 4.02825 18.1512 4.23738 18.3577L5.64241 16.9343C5.73944 17.0301 5.8031 17.1548 5.82375 17.2898L3.84673 17.5921ZM3.99083 16.7447C3.85285 17.0042 3.80228 17.3014 3.84673 17.5921L5.82375 17.2898C5.8444 17.4248 5.8209 17.5629 5.75684 17.6834L3.99083 16.7447ZM4.9726 14.8667L3.98763 16.7507L5.76003 17.6773L6.74499 15.7933L4.9726 14.8667ZM4.3018 14.2241C4.47168 14.7804 4.70198 15.3165 4.98857 15.8227L6.72901 14.8374C6.51433 14.4582 6.34184 14.0566 6.21461 13.64L4.3018 14.2241ZM2.9709 14.2899L4.97085 14.8899L5.54556 12.9742L3.54561 12.3742L2.9709 14.2899ZM2.26902 13.7962C2.44237 14.0298 2.68569 14.2019 2.96345 14.2876L3.55306 12.3765C3.68178 12.4162 3.79463 12.496 3.87508 12.6044L2.26902 13.7962ZM2.00001 12.9887C2.00137 13.2797 2.09566 13.5626 2.26902 13.7962L3.87509 12.6044C3.95555 12.7128 3.99936 12.8442 3.99999 12.9794L2.00001 12.9887ZM2 10.9561V12.984H4V10.9561H2ZM2.26902 10.1438C2.09566 10.3775 2.00137 10.6604 2.00001 10.9514L3.99999 10.9607C3.99936 11.0959 3.95555 11.2273 3.87509 11.3357L2.26902 10.1438ZM2.96344 9.6525C2.68569 9.73819 2.44237 9.91026 2.26902 10.1438L3.87509 11.3357C3.79463 11.4441 3.68178 11.5239 3.55306 11.5636L2.96344 9.6525ZM4.95725 9.05071L2.96931 9.65071L3.5472 11.5654L5.53514 10.9654L4.95725 9.05071ZM4.97429 8.09744C4.68592 8.61235 4.45561 9.15765 4.28759 9.72332L6.2048 10.2928C6.33067 9.86902 6.50322 9.46048 6.71928 9.07469L4.97429 8.09744ZM3.99412 7.26158L4.96707 9.06157L6.72649 8.11055L5.75354 6.31056L3.99412 7.26158ZM3.84673 6.40797C3.80228 6.69865 3.85284 6.99586 3.99083 7.25544L5.75683 6.31671C5.8209 6.43723 5.8444 6.57528 5.82375 6.71031L3.84673 6.40797ZM4.23738 5.64241C4.02824 5.84885 3.89118 6.1173 3.84673 6.40797L5.82375 6.71031C5.8031 6.84534 5.73944 6.96996 5.64241 7.06574L4.23738 5.64241ZM5.70146 4.21585L4.24203 5.63784L5.63776 7.07031L7.09718 5.64831L5.70146 4.21585ZM6.45371 3.83898C6.16341 3.88329 5.89498 4.01995 5.68835 4.22887L7.1103 5.6353C7.01443 5.73222 6.88998 5.79555 6.75547 5.81608L6.45371 3.83898ZM7.30039 3.9827C7.04091 3.84504 6.74401 3.79467 6.45371 3.83898L6.75547 5.81608C6.62097 5.83661 6.48338 5.81328 6.3631 5.74947L7.30039 3.9827ZM9.10829 4.95798L7.30653 3.98598L6.35696 5.74618L8.15872 6.71818L9.10829 4.95798ZM9.78051 4.27878C9.21209 4.44611 8.66407 4.67614 8.14658 4.96464L9.12043 6.71152C9.50834 6.49527 9.91916 6.32282 10.3453 6.19738L9.78051 4.27878ZM9.70654 2.96782L9.10596 4.94781L11.0198 5.52835L11.6204 3.54836L9.70654 2.96782ZM10.2002 2.26848C9.96649 2.44156 9.79404 2.68474 9.70809 2.96275L11.6189 3.55343C11.579 3.68255 11.4989 3.7954 11.3905 3.87567L10.2002 2.26848ZM11.0072 2.0001C10.7165 2.00145 10.4338 2.09542 10.2002 2.26848L11.3905 3.87567C11.2822 3.95592 11.1511 3.99945 11.0165 4.00008L11.0072 2.0001ZM13.0418 2.00009H11.0118V4.00009H13.0418V2.00009ZM13.8294 2.24399C13.5919 2.07914 13.3083 1.99388 13.0194 2.00034L13.0642 3.99984C12.9303 4.00284 12.7989 3.96334 12.6888 3.8869L13.8294 2.24399ZM14.3409 2.9182C14.246 2.64486 14.0668 2.40885 13.8294 2.24399L12.6888 3.8869C12.5787 3.81045 12.4955 3.70094 12.4514 3.57399L14.3409 2.9182ZM14.9539 4.94261L14.3533 2.95663L12.439 3.53556L13.0396 5.52155L14.9539 4.94261ZM15.9031 4.95977C15.3899 4.67212 14.8465 4.44208 14.2827 4.27384L13.7108 6.19032C14.1333 6.31642 14.5406 6.48883 14.9252 6.70439L15.9031 4.95977ZM16.7749 3.97194L14.9432 4.94993L15.8851 6.71422L17.7169 5.73623L16.7749 3.97194ZM17.624 3.82698C17.3337 3.78267 17.0368 3.83304 16.7773 3.9707L17.7146 5.73747C17.5943 5.80128 17.4567 5.82461 17.3222 5.80408L17.624 3.82698ZM18.3893 4.21687C18.1827 4.00795 17.9143 3.87129 17.624 3.82698L17.3222 5.80408C17.1877 5.78355 17.0632 5.72022 16.9674 5.6233L18.3893 4.21687ZM19.822 5.6541L18.3866 4.2141L16.9701 5.62606L18.4055 7.06605L19.822 5.6541ZM20.2069 6.41399C20.1625 6.1233 20.0254 5.85485 19.8163 5.64841L18.4112 7.07174C18.3142 6.97596 18.2505 6.85134 18.2299 6.7163L20.2069 6.41399ZM20.0628 7.26142C20.2008 7.00186 20.2514 6.70466 20.2069 6.41396L18.2299 6.71632C18.2092 6.58127 18.2327 6.44323 18.2968 6.32272L20.0628 7.26142ZM19.0767 9.10561L20.0617 7.26362L18.298 6.32053L17.313 8.16252L19.0767 9.10561ZM19.7267 9.75647C19.5677 9.20179 19.349 8.66596 19.0745 8.15836L17.3152 9.10977C17.521 9.49027 17.6849 9.89191 17.8041 10.3076L19.7267 9.75647ZM12.0268 14.3C11.5711 14.3 11.1256 14.165 10.7468 13.9122L9.63645 15.5756C10.3441 16.048 11.1759 16.3 12.0268 16.3V14.3ZM13.6558 13.626C13.2239 14.0575 12.638 14.3 12.0268 14.3V16.3C13.1678 16.3 14.2622 15.8472 15.0693 15.0409L13.6558 13.626ZM14.33 12C14.33 12.6097 14.0876 13.1946 13.6558 13.626L15.0693 15.0409C15.8764 14.2346 16.33 13.1408 16.33 12H14.33ZM13.9421 10.7226C14.1951 11.1008 14.33 11.5454 14.33 12H16.33C16.33 11.1494 16.0775 10.3179 15.6046 9.61073L13.9421 10.7226ZM12.9085 9.87527C13.3295 10.0495 13.6892 10.3444 13.9421 10.7226L15.6046 9.61073C15.1316 8.90358 14.4595 8.35258 13.6733 8.02725L12.9085 9.87527ZM11.5773 9.74429C12.0243 9.65547 12.4876 9.70107 12.9085 9.87527L13.6733 8.02725C12.8871 7.70192 12.022 7.61681 11.1875 7.78265L11.5773 9.74429ZM10.3978 10.3741C10.7199 10.0523 11.1303 9.83311 11.5773 9.74429L11.1875 7.78265C10.3529 7.94849 9.58621 8.35786 8.98433 8.95915L10.3978 10.3741ZM9.76781 11.5515C9.85661 11.1056 10.0758 10.6958 10.3978 10.3741L8.98433 8.95915C8.38243 9.56045 7.97243 10.3267 7.80631 11.161L9.76781 11.5515ZM9.89878 12.8799C9.72458 12.4597 9.67902 11.9975 9.76781 11.5515L7.80631 11.161C7.6402 11.9953 7.72546 12.8601 8.05129 13.6459L9.89878 12.8799ZM10.7468 13.9122C10.3681 13.6593 10.073 13.3 9.89878 12.8799L8.05129 13.6459C8.37711 14.4317 8.92881 15.1032 9.63645 15.5756L10.7468 13.9122Z" fill="#2C2C2C" mask="url(#path-1-inside-1_328:87)"/>
</svg>
