<svg width="24" height="24" viewBox="0 0 24 24" fill="none" xmlns="http://www.w3.org/2000/svg">
<path fill-rule="evenodd" clip-rule="evenodd" d="M18.7654 10.0321L20.7774 10.6321C20.8461 10.6614 20.9043 10.711 20.944 10.7743C20.9837 10.8375 21.0031 10.9114 20.9996 10.9861V13.032C20.9992 13.11 20.974 13.1857 20.9275 13.2483C20.8811 13.3109 20.8159 13.357 20.7413 13.38L18.7174 13.98C18.5767 14.457 18.3854 14.9176 18.1468 15.354L19.1438 17.214C19.1807 17.2836 19.1943 17.3631 19.1824 17.441C19.1705 17.5188 19.1338 17.5907 19.0777 17.646L17.6423 19.08C17.5869 19.136 17.5149 19.1727 17.437 19.1846C17.3591 19.1965 17.2795 19.1829 17.2099 19.146L15.3421 18.15C14.9069 18.386 14.4479 18.575 13.9727 18.714L13.3721 20.742C13.3491 20.8164 13.3029 20.8816 13.2403 20.928C13.1776 20.9744 13.1018 20.9996 13.0238 21H10.9938C10.9158 20.9996 10.84 20.9744 10.7773 20.928C10.7147 20.8816 10.6685 20.8164 10.6455 20.742L10.0449 18.72C9.56563 18.5817 9.10254 18.3927 8.66353 18.156L6.80772 19.146C6.73812 19.1829 6.65846 19.1965 6.58057 19.1846C6.50267 19.1727 6.43069 19.136 6.3753 19.08L4.9399 17.646C4.88384 17.5907 4.84714 17.5188 4.83524 17.441C4.82334 17.3631 4.83687 17.2836 4.87383 17.214L5.85879 15.33C5.60815 14.8873 5.40676 14.4185 5.25821 13.932L3.25825 13.332C3.18373 13.309 3.1185 13.2629 3.07205 13.2003C3.02561 13.1377 3.00036 13.062 3 12.984V10.9561C3.00036 10.8781 3.02561 10.8024 3.07205 10.7398C3.1185 10.6772 3.18373 10.631 3.25825 10.6081L5.24619 10.0081C5.39314 9.51333 5.59457 9.03642 5.84678 8.58606L4.87383 6.78607C4.83687 6.71654 4.82334 6.63696 4.83524 6.55914C4.84714 6.48132 4.88384 6.40941 4.9399 6.35408L6.39932 4.93208C6.45471 4.87608 6.52669 4.83942 6.60459 4.82753C6.68249 4.81564 6.76215 4.82916 6.83174 4.86608L8.63351 5.83808C9.08621 5.58571 9.56562 5.38447 10.0629 5.23808L10.6635 3.25809C10.6865 3.18364 10.7327 3.11848 10.7953 3.07208C10.858 3.02567 10.9338 3.00045 11.0118 3.00009H13.0418C13.1193 2.99836 13.1954 3.02124 13.2591 3.06544C13.3228 3.10965 13.3708 3.1729 13.3962 3.24609L13.9967 5.23208C14.4899 5.37925 14.9653 5.58048 15.4141 5.83208L17.2459 4.85408C17.3155 4.81716 17.3952 4.80364 17.4731 4.81553C17.551 4.82742 17.623 4.86408 17.6783 4.92008L19.1137 6.36008C19.1698 6.41541 19.2065 6.48732 19.2184 6.56514C19.2303 6.64296 19.2168 6.72254 19.1798 6.79207L18.1948 8.63406C18.435 9.07812 18.6263 9.54685 18.7654 10.0321ZM10.1916 14.7439C10.7349 15.1065 11.3735 15.3 12.0268 15.3C12.9029 15.3 13.7431 14.9524 14.3626 14.3335C14.982 13.7146 15.33 12.8753 15.33 12C15.33 11.3474 15.1363 10.7094 14.7734 10.1667C14.4104 9.624 13.8945 9.20103 13.2909 8.95126C12.6873 8.70149 12.0232 8.63614 11.3824 8.76347C10.7416 8.8908 10.153 9.2051 9.69109 9.66661C9.22912 10.1281 8.91452 10.7161 8.78706 11.3563C8.65961 11.9964 8.72502 12.6599 8.97504 13.2629C9.22505 13.8659 9.64843 14.3813 10.1916 14.7439Z" fill="#F50500"/>
</svg>
