<svg width="36" height="36" viewBox="0 0 36 36" fill="none" xmlns="http://www.w3.org/2000/svg">
<path d="M17.9995 0.333008C14.4834 0.333008 11.0462 1.37566 8.12266 3.3291C5.19912 5.28255 2.9205 8.05906 1.57494 11.3075C0.229382 14.556 -0.122677 18.1305 0.563283 21.5791C1.24924 25.0276 2.94241 28.1953 5.42868 30.6816C7.91494 33.1678 11.0826 34.861 14.5312 35.547C17.9797 36.2329 21.5543 35.8809 24.8027 34.5353C28.0512 33.1898 30.8277 30.9111 32.7811 27.9876C34.7346 25.064 35.7772 21.6269 35.7772 18.1108C35.7772 13.3958 33.9042 8.87398 30.5703 5.54C27.2363 2.20602 22.7144 0.333008 17.9995 0.333008ZM16.4439 7.77745C16.4439 7.36489 16.6078 6.96923 16.8995 6.67751C17.1912 6.38578 17.5869 6.2219 17.9995 6.2219C18.412 6.2219 18.8077 6.38578 19.0994 6.67751C19.3911 6.96923 19.555 7.36489 19.555 7.77745V21.1108C19.555 21.5233 19.3911 21.919 19.0994 22.2107C18.8077 22.5025 18.412 22.6663 17.9995 22.6663C17.5869 22.6663 17.1912 22.5025 16.8995 22.2107C16.6078 21.919 16.4439 21.5233 16.4439 21.1108V7.77745ZM17.9995 29.7775C17.6039 29.7775 17.2172 29.6602 16.8883 29.4404C16.5594 29.2206 16.3031 28.9083 16.1517 28.5428C16.0003 28.1774 15.9607 27.7752 16.0379 27.3873C16.1151 26.9993 16.3055 26.6429 16.5853 26.3632C16.865 26.0835 17.2213 25.893 17.6093 25.8159C17.9972 25.7387 18.3994 25.7783 18.7648 25.9297C19.1303 26.0811 19.4426 26.3374 19.6624 26.6663C19.8822 26.9952 19.9995 27.3819 19.9995 27.7774C19.9995 28.3079 19.7888 28.8166 19.4137 29.1917C19.0386 29.5667 18.5299 29.7775 17.9995 29.7775Z" fill="#FF8800"/>
</svg>
