<svg width="30" height="30" viewBox="0 0 30 30" fill="none" xmlns="http://www.w3.org/2000/svg">
    <path
            d="M17 24C15.89 24 15 24.89 15 26C15 26.5304 15.2107 27.0391 15.5858 27.4142C15.9609 27.7893 16.4696 28 17 28C17.5304 28 18.0391 27.7893 18.4142 27.4142C18.7893 27.0391 19 26.5304 19 26C19 25.4696 18.7893 24.9609 18.4142 24.5858C18.0391 24.2107 17.5304 24 17 24ZM1 8V10H3L6.6 17.59L5.24 20.04C5.09 20.32 5 20.65 5 21C5 21.5304 5.21071 22.0391 5.58579 22.4142C5.96086 22.7893 6.46957 23 7 23H19V21H7.42C7.3537 21 7.29011 20.9737 7.24322 20.9268C7.19634 20.8799 7.17 20.8163 7.17 20.75C7.17 20.7 7.18 20.66 7.2 20.63L8.1 19H15.55C16.3 19 16.96 18.58 17.3 17.97L20.88 11.5C20.95 11.34 21 11.17 21 11C21 10.7348 20.8946 10.4804 20.7071 10.2929C20.5196 10.1054 20.2652 10 20 10H5.21L4.27 8H1ZM7 24C5.89 24 5 24.89 5 26C5 26.5304 5.21071 27.0391 5.58579 27.4142C5.96086 27.7893 6.46957 28 7 28C7.53043 28 8.03914 27.7893 8.41421 27.4142C8.78929 27.0391 9 26.5304 9 26C9 25.4696 8.78929 24.9609 8.41421 24.5858C8.03914 24.2107 7.53043 24 7 24Z" />
    <circle cx="21.5" cy="8.5" r="8" fill="#FB0000" stroke="white" />
    <path
            d="M24.4414 12H19.7832V11.3506L22.2441 8.61621C22.6087 8.2028 22.8594 7.86751 22.9961 7.61035C23.1361 7.34993 23.2061 7.08138 23.2061 6.80469C23.2061 6.43359 23.0938 6.12923 22.8691 5.8916C22.6445 5.65397 22.3451 5.53516 21.9707 5.53516C21.5215 5.53516 21.1715 5.66374 20.9209 5.9209C20.6735 6.1748 20.5498 6.52962 20.5498 6.98535H19.6465C19.6465 6.33105 19.8564 5.80208 20.2764 5.39844C20.6995 4.99479 21.2643 4.79297 21.9707 4.79297C22.6315 4.79297 23.154 4.96712 23.5381 5.31543C23.9222 5.66048 24.1143 6.12109 24.1143 6.69727C24.1143 7.39714 23.6683 8.23047 22.7764 9.19727L20.8721 11.2627H24.4414V12Z"
            fill="#2C2C2C" />
</svg>