
<svg width="30" height="30" viewBox="0 0 30 30" fill="none" xmlns="http://www.w3.org/2000/svg">
    <path
            d="M12 27.35L10.55 26.03C5.4 21.36 2 18.27 2 14.5C2 11.41 4.42 9 7.5 9C9.24 9 10.91 9.81 12 11.08C13.09 9.81 14.76 9 16.5 9C19.58 9 22 11.41 22 14.5C22 18.27 18.6 21.36 13.45 26.03L12 27.35Z" />
    <circle cx="21.5" cy="8.5" r="8" fill="#FB0000" stroke="white" />
    <path
            d="M19.9443 12H19.0361V5.97949L17.2148 6.64844V5.82812L19.8027 4.85645H19.9443V12ZM25.5596 12H24.6514V5.97949L22.8301 6.64844V5.82812L25.418 4.85645H25.5596V12Z"
            fill="#2C2C2C" />
</svg>