<svg width="55" height="32" viewBox="0 0 55 32" fill="none" xmlns="http://www.w3.org/2000/svg">
<path fill-rule="evenodd" clip-rule="evenodd" d="M22.1322 12.998H19.6291C19.4578 12.998 19.3121 13.1209 19.2854 13.2878L18.273 19.6238C18.2529 19.7488 18.351 19.8615 18.4794 19.8615H19.6744C19.8457 19.8615 19.9914 19.7386 20.0181 19.5714L20.2912 17.8625C20.3175 17.6952 20.4635 17.5723 20.6345 17.5723H21.4269C23.0757 17.5723 24.0273 16.7847 24.2758 15.224C24.3878 14.5411 24.2806 14.0046 23.9567 13.6289C23.6009 13.2163 22.9699 12.998 22.1322 12.998ZM22.4209 15.3121C22.284 16.1987 21.5978 16.1987 20.9342 16.1987H20.5565L20.8215 14.5429C20.8372 14.4428 20.9251 14.3691 21.0276 14.3691H21.2007C21.6527 14.3691 22.0791 14.3691 22.2994 14.6235C22.4308 14.7752 22.4711 15.0007 22.4209 15.3121Z" fill="#253B80"/>
<path fill-rule="evenodd" clip-rule="evenodd" d="M29.6143 15.2832H28.4157C28.3136 15.2832 28.2254 15.3569 28.2096 15.4569L28.1565 15.7879L28.0727 15.6679C27.8132 15.2962 27.2346 15.1719 26.657 15.1719C25.3325 15.1719 24.2011 16.1622 23.9808 17.5513C23.8662 18.2443 24.0291 18.9069 24.4273 19.369C24.7926 19.7939 25.3153 19.9709 25.9371 19.9709C27.0044 19.9709 27.5962 19.2935 27.5962 19.2935L27.5428 19.6222C27.5226 19.748 27.6207 19.8607 27.7484 19.8607H28.8282C28.9998 19.8607 29.1448 19.7379 29.1718 19.5706L29.8197 15.5209C29.8402 15.3962 29.7424 15.2832 29.6143 15.2832ZM27.9435 17.586C27.8279 18.262 27.2844 18.7158 26.5911 18.7158C26.2431 18.7158 25.9649 18.6056 25.7863 18.3967C25.6092 18.1894 25.5418 17.8942 25.5982 17.5654C25.7061 16.8952 26.2588 16.4266 26.9414 16.4266C27.2818 16.4266 27.5585 16.5383 27.7408 16.7489C27.9234 16.9617 27.9959 17.2587 27.9435 17.586Z" fill="#253B80"/>
<path fill-rule="evenodd" clip-rule="evenodd" d="M35.9982 15.2832H34.7936C34.6787 15.2832 34.5707 15.3396 34.5056 15.4339L32.8443 17.8494L32.1401 15.5282C32.0958 15.3829 31.96 15.2832 31.8063 15.2832H30.6227C30.4788 15.2832 30.3789 15.4219 30.4247 15.5556L31.7514 19.399L30.5041 21.1372C30.406 21.2741 30.5048 21.4623 30.6743 21.4623H31.8773C31.9915 21.4623 32.0984 21.4074 32.1632 21.3149L36.1695 15.6066C36.2653 15.47 36.1669 15.2832 35.9982 15.2832Z" fill="#253B80"/>
<path fill-rule="evenodd" clip-rule="evenodd" d="M39.986 12.998H37.4826C37.3116 12.998 37.166 13.1209 37.1393 13.2878L36.1269 19.6238C36.1068 19.7488 36.2049 19.8615 36.3326 19.8615H37.6173C37.7366 19.8615 37.8387 19.7755 37.8574 19.6584L38.1447 17.8625C38.171 17.6952 38.3171 17.5723 38.488 17.5723H39.28C40.9292 17.5723 41.8805 16.7847 42.1293 15.224C42.2417 14.5411 42.1337 14.0046 41.8098 13.6289C41.4544 13.2163 40.8238 12.998 39.986 12.998ZM40.2748 15.3121C40.1383 16.1987 39.452 16.1987 38.7881 16.1987H38.4108L38.6761 14.5429C38.6918 14.4428 38.779 14.3691 38.8818 14.3691H39.0549C39.5066 14.3691 39.9333 14.3691 40.1537 14.6235C40.2851 14.7752 40.325 15.0007 40.2748 15.3121Z" fill="#179BD7"/>
<path fill-rule="evenodd" clip-rule="evenodd" d="M47.468 15.2832H46.27C46.1672 15.2832 46.0797 15.3569 46.0643 15.4569L46.0113 15.7879L45.9271 15.6679C45.6676 15.2962 45.0893 15.1719 44.5118 15.1719C43.1872 15.1719 42.0563 16.1622 41.8359 17.5513C41.7217 18.2443 41.8839 18.9069 42.2821 19.369C42.6481 19.7939 43.17 19.9709 43.7918 19.9709C44.8591 19.9709 45.4509 19.2935 45.4509 19.2935L45.3975 19.6222C45.3774 19.748 45.4754 19.8607 45.6039 19.8607H46.6833C46.8542 19.8607 46.9998 19.7379 47.0266 19.5706L47.6748 15.5209C47.6945 15.3962 47.5964 15.2832 47.468 15.2832ZM45.7972 17.586C45.6822 18.262 45.138 18.7158 44.4448 18.7158C44.0975 18.7158 43.8186 18.6056 43.64 18.3967C43.4628 18.1894 43.3962 17.8942 43.4518 17.5654C43.5605 16.8952 44.1125 16.4266 44.795 16.4266C45.1354 16.4266 45.4121 16.5383 45.5944 16.7489C45.7778 16.9617 45.8502 17.2587 45.7972 17.586Z" fill="#179BD7"/>
<path fill-rule="evenodd" clip-rule="evenodd" d="M48.8812 13.1722L47.8538 19.6241C47.8337 19.7491 47.9318 19.8619 48.0595 19.8619H49.0924C49.2641 19.8619 49.4097 19.739 49.4361 19.5717L50.4492 13.2361C50.4693 13.1111 50.3712 12.998 50.2435 12.998H49.0869C48.9848 12.9984 48.8969 13.0721 48.8812 13.1722Z" fill="#179BD7"/>
<path fill-rule="evenodd" clip-rule="evenodd" d="M7.87823 21.0928L8.06965 19.8926L7.64325 19.8828H5.60718L7.02215 11.0265C7.02654 10.9998 7.04081 10.9748 7.06167 10.9571C7.08254 10.9394 7.10925 10.9297 7.13707 10.9297H10.5702C11.7099 10.9297 12.4965 11.1638 12.9071 11.6259C13.0996 11.8427 13.2222 12.0692 13.2815 12.3185C13.3437 12.5801 13.3448 12.8926 13.2841 13.2737L13.2797 13.3016V13.5458L13.4722 13.6535C13.6344 13.7384 13.7632 13.8356 13.862 13.9468C14.0267 14.1322 14.1332 14.3677 14.1782 14.647C14.2247 14.9342 14.2093 15.276 14.1332 15.663C14.0454 16.1081 13.9034 16.4957 13.7116 16.8129C13.5352 17.1052 13.3104 17.3477 13.0436 17.5355C12.7889 17.714 12.4862 17.8495 12.144 17.9362C11.8124 18.0215 11.4343 18.0645 11.0196 18.0645H10.7524C10.5614 18.0645 10.3758 18.1324 10.2302 18.2541C10.0841 18.3784 9.9875 18.5482 9.95786 18.7339L9.93773 18.842L9.59954 20.9573L9.58417 21.035C9.58014 21.0596 9.57319 21.0718 9.56294 21.0802C9.55379 21.0877 9.54061 21.0928 9.5278 21.0928H7.87823Z" fill="#253B80"/>
<path fill-rule="evenodd" clip-rule="evenodd" d="M13.6545 13.3291C13.6442 13.3938 13.6325 13.4599 13.6193 13.5278C13.1666 15.8224 11.6176 16.615 9.6394 16.615H8.63216C8.39023 16.615 8.18637 16.7885 8.14867 17.024L7.63297 20.2525L7.48694 21.1677C7.46241 21.3223 7.5832 21.4617 7.74131 21.4617H9.52777C9.73932 21.4617 9.91903 21.31 9.95233 21.1041L9.9699 21.0145L10.3063 18.9074L10.3279 18.7918C10.3608 18.5852 10.5409 18.4334 10.7524 18.4334H11.0196C12.7504 18.4334 14.1054 17.7397 14.5014 15.7324C14.6668 14.8938 14.5812 14.1937 14.1434 13.7012C14.0109 13.5527 13.8466 13.4295 13.6545 13.3291Z" fill="#179BD7"/>
<path fill-rule="evenodd" clip-rule="evenodd" d="M13.1809 13.1428C13.1117 13.123 13.0403 13.1049 12.9671 13.0886C12.8935 13.0727 12.8182 13.0587 12.7406 13.0464C12.469 13.003 12.1714 12.9824 11.8526 12.9824H9.16178C9.09553 12.9824 9.03258 12.9972 8.97622 13.024C8.85214 13.0829 8.75991 13.1988 8.73758 13.3408L8.16515 16.9198L8.14868 17.0242C8.18638 16.7886 8.39024 16.6152 8.63217 16.6152H9.63941C11.6177 16.6152 13.1666 15.8222 13.6193 13.528C13.6329 13.4601 13.6442 13.3939 13.6545 13.3293C13.5399 13.2693 13.4158 13.218 13.2822 13.1743C13.2493 13.1634 13.2153 13.153 13.1809 13.1428Z" fill="#222D65"/>
<path fill-rule="evenodd" clip-rule="evenodd" d="M8.7375 13.3411C8.75983 13.1992 8.85206 13.0832 8.97614 13.0247C9.03287 12.9979 9.09546 12.9831 9.1617 12.9831H11.8526C12.1714 12.9831 12.4689 13.0037 12.7405 13.0471C12.8181 13.0593 12.8935 13.0734 12.967 13.0893C13.0402 13.1056 13.1116 13.1237 13.1808 13.1435C13.2152 13.1536 13.2492 13.1641 13.2825 13.1746C13.4161 13.2183 13.5402 13.27 13.6548 13.3296C13.7895 12.4816 13.6537 11.9043 13.1892 11.3815C12.6772 10.806 11.753 10.5596 10.5704 10.5596H7.13734C6.89577 10.5596 6.68971 10.733 6.65238 10.9689L5.22241 19.9163C5.19422 20.0933 5.33257 20.253 5.51338 20.253H7.63291L8.16507 16.9201L8.7375 13.3411Z" fill="#253B80"/>
</svg>
