<svg width="24" height="24" viewBox="0 0 24 24" fill="none" xmlns="http://www.w3.org/2000/svg">
<path fill-rule="evenodd" clip-rule="evenodd" d="M18.3233 14.9048C19.5703 13.2971 20.158 11.2748 19.9668 9.24925C19.7757 7.22367 18.82 5.34701 17.2943 4.00104C15.7685 2.65507 13.7873 1.9409 11.7537 2.00383C9.72015 2.06676 7.7869 2.90205 6.34731 4.33978C4.90647 5.77851 4.06844 7.7125 4.00401 9.74765C3.93958 11.7828 4.65359 13.7659 6.00054 15.2929C7.34749 16.8199 9.22601 17.7758 11.2533 17.9659C13.2806 18.1559 15.304 17.5658 16.9113 16.3158L16.9543 16.3608L21.1963 20.6038C21.2892 20.6967 21.3995 20.7704 21.5209 20.8207C21.6423 20.871 21.7724 20.8968 21.9038 20.8968C22.0352 20.8968 22.1653 20.871 22.2867 20.8207C22.4081 20.7704 22.5184 20.6967 22.6113 20.6038C22.7042 20.5109 22.7779 20.4006 22.8282 20.2792C22.8785 20.1578 22.9044 20.0277 22.9044 19.8963C22.9044 19.7649 22.8785 19.6348 22.8282 19.5134C22.7779 19.392 22.7042 19.2817 22.6113 19.1888L18.3683 14.9468C18.3537 14.9324 18.3387 14.9184 18.3233 14.9048ZM16.2473 5.75478C16.8119 6.31026 17.2609 6.97203 17.5685 7.70192C17.8761 8.43181 18.0361 9.21537 18.0393 10.0074C18.0425 10.7994 17.8889 11.5843 17.5873 12.3166C17.2857 13.049 16.8421 13.7144 16.282 14.2745C15.7219 14.8345 15.0565 15.2782 14.3242 15.5798C13.5918 15.8814 12.807 16.035 12.0149 16.0318C11.2229 16.0286 10.4393 15.8686 9.70945 15.561C8.97956 15.2534 8.31779 14.8044 7.76231 14.2398C6.65223 13.1115 6.03297 11.5902 6.03941 10.0074C6.04586 8.42458 6.67749 6.90843 7.79672 5.78919C8.91596 4.66996 10.4321 4.03833 12.0149 4.03188C13.5978 4.02544 15.119 4.6447 16.2473 5.75478Z" fill="#2C2C2C"/>
</svg>
