<svg width="24" height="24" viewBox="0 0 24 24" fill="none" xmlns="http://www.w3.org/2000/svg">
<path d="M12 0C5.37312 0 0 5.37312 0 12C0 18.6269 5.37312 24 12 24C18.6269 24 24 18.6278 24 12C24 5.37312 18.6278 0 12 0ZM12 23.76C5.5056 23.76 0.24 18.4944 0.24 12C0.24 5.5056 5.5056 0.24 12 0.24C18.4944 0.24 23.76 5.5056 23.76 12C23.76 18.4944 18.4944 23.76 12 23.76Z" fill="#f50500"/>
<path d="M3.2707 8.34048L3.5683 7.62336L4.05118 7.82496L3.50398 9.1392L1.3123 8.22816L1.5619 7.63008L3.2707 8.34048Z" fill="#f50500"/>
<path d="M4.00514 4.75296L4.29794 5.01984L4.77698 4.49568L5.1629 4.848L4.68386 5.37312L5.37122 6.00096L4.93442 6.47904L3.18242 4.87872L4.14722 3.82272L4.53314 4.17408L4.00514 4.75296Z" fill="#f50500"/>
<path d="M18.9648 2.98176L19.4294 3.41856L18.9274 4.68864L20.1869 4.1328L20.6563 4.5744L19.3958 6.68736L18.9322 6.2352L19.6358 4.9968L19.631 4.99296L18.2592 5.57664L18.071 5.4L18.5914 4.01376L18.5866 4.00896L17.4134 4.79616L16.9392 4.35936L18.9648 2.98176Z" fill="#f50500"/>
<path d="M21.9974 7.83936L21.6307 7.99104L21.911 8.66592L21.4282 8.8656L21.1478 8.19168L20.7706 8.34816L21.0653 9.05952L20.5834 9.2592L20.04 7.94976L22.2317 7.04064L22.775 8.35008L22.2922 8.54976L21.9974 7.83936Z" fill="#f50500"/>
<path d="M3.06142 11.2886L3.07006 10.5974L0.686379 11.5075L0.677739 12.215L3.03934 13.2019L3.04798 12.5146L2.6371 12.3379L2.64766 11.4461L3.06142 11.2886ZM2.16574 12.1536L1.41406 11.8771V11.8704L2.17246 11.615L2.16574 12.1536Z" fill="#f50500"/>
<path d="M7.08286 1.80192L6.45598 2.13024L6.70846 4.67712L7.3171 4.3584L7.27774 3.91392L8.06782 3.4992L8.40286 3.79008L9.01438 3.46944L7.08286 1.80192ZM7.21726 3.41184L7.10398 2.61888L7.10974 2.616L7.69438 3.16224L7.21726 3.41184Z" fill="#f50500"/>
<path d="M11.6054 2.07936C11.953 1.992 12.1219 1.6944 12.096 1.368C12.0566 0.86304 11.6659 0.66912 11.1754 0.70848L10.2106 0.78528L10.3987 3.14976L11.0448 3.09888L10.9728 2.18976H10.9795L11.6611 3.05088L12.4646 2.98656L11.6054 2.07936ZM11.0026 1.78944L10.9402 1.79424L10.8931 1.20384L10.9555 1.2C11.1658 1.18272 11.4067 1.20192 11.4269 1.4592C11.447 1.71648 11.2128 1.77312 11.0026 1.78944Z" fill="#f50500"/>
<path d="M15.5251 1.14816C14.8425 0.92832 14.0582 1.2048 13.8384 1.88832C13.6032 2.61984 13.9872 3.312 14.7485 3.5568C15.5097 3.8016 16.2269 3.46368 16.4621 2.73216C16.6819 2.0496 16.2077 1.368 15.5251 1.14816ZM15.8198 2.5296C15.8179 2.53632 15.816 2.54304 15.8131 2.5488C15.6912 2.9136 15.2957 3.10944 14.9318 2.98752C14.9251 2.9856 14.9184 2.98368 14.9126 2.9808C14.5488 2.85696 14.3549 2.46144 14.4787 2.0976C14.5795 1.7856 14.9731 1.5984 15.3417 1.71744C15.7094 1.83552 15.9197 2.2176 15.8198 2.5296Z" fill="#f50500"/>
<path d="M23.4326 11.6237C23.4077 10.9066 22.8816 10.2643 22.1654 10.2883C21.3974 10.3152 20.8771 10.9123 20.904 11.711C20.9318 12.5107 21.4934 13.0704 22.2605 13.0435C22.9776 13.0176 23.4576 12.3398 23.4326 11.6237ZM22.2336 12.3686C22.2269 12.3686 22.2192 12.3696 22.2125 12.3696C21.8285 12.3782 21.5107 12.0739 21.5021 11.6899C21.5021 11.6832 21.5011 11.6765 21.5011 11.6698C21.4944 11.2858 21.8006 10.969 22.1856 10.9622C22.513 10.9507 22.823 11.257 22.8355 11.6438C22.849 12.0307 22.561 12.3571 22.2336 12.3686Z" fill="#f50500"/>
<path d="M12 3.3552C7.2259 3.3552 3.35518 7.22592 3.35518 12C3.35518 16.7741 7.2259 20.6448 12 20.6448C16.7741 20.6448 20.6448 16.775 20.6448 12C20.6448 7.22496 16.7741 3.3552 12 3.3552ZM9.36478 3.99936C10.1827 3.7296 11.0381 3.58848 11.8992 3.57888V10.5101H9.36286L9.36478 3.99936ZM6.80734 5.37024L6.81118 10.511L3.70846 10.5101C4.0771 8.42976 5.2099 6.62304 6.80734 5.37024ZM3.6451 13.0637H6.81022L6.81118 18.6336C5.06302 17.2675 3.92446 15.2659 3.6451 13.0637ZM11.8992 20.4211C11.0371 20.4115 10.1808 20.2694 9.3619 19.9987L9.36286 13.0637H11.8992V20.4211ZM12.1008 20.4211H12.0845C12.0902 20.4211 12.096 20.4211 12.1008 20.4211V3.57984C16.6973 3.62592 20.4211 7.37856 20.4211 12.001C20.4211 16.6176 16.7078 20.3664 12.1008 20.4211Z" fill="#f50500"/>
<path d="M14.4672 7.12992H17.5296V6.8112H14.4672V7.12992ZM14.4672 6.54528H17.5296V6.30144H14.4672V6.54528ZM16.6253 6.1632C16.7664 6.1632 16.8816 6.04896 16.8816 5.90688C16.8816 5.76576 16.7673 5.65056 16.6253 5.65056C16.4841 5.65056 16.3689 5.7648 16.3689 5.90688C16.3699 6.048 16.4841 6.1632 16.6253 6.1632ZM15.5088 18.6288C15.1593 18.6288 14.8761 18.3677 14.8761 18.0182C14.8761 17.6698 15.1584 17.3654 15.5088 17.3654H16.7414C16.8749 17.3654 16.9824 17.2579 16.9824 17.1245C16.9833 16.991 16.8758 16.8816 16.7414 16.8797H14.7638C14.1245 16.8797 13.6061 16.3613 13.6061 15.721C13.6061 15.0816 14.1245 14.5891 14.7638 14.5891L17.1878 14.5872C17.3376 14.5872 17.4585 14.5085 17.4585 14.3597C17.4595 14.209 17.3385 14.0851 17.1878 14.0832H14.7427C13.7789 14.1043 12.9811 13.3411 12.96 12.3773C12.9389 11.4134 13.7021 10.6157 14.6659 10.5946C14.6918 10.5936 14.7177 10.5936 14.7437 10.5946L17.0937 10.5965C17.2761 10.5965 17.424 10.4381 17.424 10.2547C17.424 10.0714 17.2761 9.93408 17.0937 9.93408L14.4461 9.93504C14.5737 9.38208 14.9357 9.29664 15.2544 9.2976H16.488C16.6291 9.2976 16.7433 9.18336 16.7443 9.04224C16.7443 8.90112 16.6301 8.80704 16.488 8.80704H15.2544C14.7235 8.80704 14.4681 8.33952 14.4461 8.08416H15.7219C15.8285 7.74336 16.0406 7.57344 16.2749 7.57344H17.6352C18.1027 7.57344 18.2937 7.27584 18.3369 7.14816C18.6557 7.29696 19.8038 8.21184 19.8038 9.74304C19.8038 11.2742 18.4435 12.0605 17.592 12.0672H14.7427C14.5929 12.0672 14.472 12.1882 14.472 12.3379C14.472 12.4877 14.5929 12.6086 14.7427 12.6086L17.4221 12.6067C18.2688 12.6067 18.9561 13.321 18.9561 14.1677C18.9561 15.0144 18.2697 15.6806 17.4221 15.6806L14.8694 15.6778C14.7283 15.6778 14.6141 15.792 14.6141 15.9331C14.6141 16.0742 14.7283 16.1885 14.8694 16.1885L16.8048 16.1904C17.2617 16.1904 17.6313 16.561 17.6313 17.0179C17.6313 17.4758 17.2608 17.8397 16.8048 17.8397L15.6345 17.8435C15.527 17.8435 15.4397 17.9318 15.4397 18.0394C15.4397 18.1469 15.527 18.2342 15.6345 18.2342H16.5331C16.847 18.2352 17.1974 18.6979 16.5225 18.9533C16.5283 18.8208 16.5062 18.6288 16.2249 18.6288C15.9446 18.6298 15.5088 18.6288 15.5088 18.6288Z" fill="#f50500"/>
<path d="M14.664 9.05472C14.1639 9.28896 14.0419 9.98976 14.0679 10.2346L13.3671 10.7184C13.2739 10.8192 13.1175 10.8259 13.0167 10.7328C12.9159 10.6397 12.9091 10.4832 13.0023 10.3824C13.0071 10.3776 13.0119 10.3728 13.0167 10.368L13.4688 10.0541C13.6915 9.90528 13.6493 9.66048 13.6176 9.45888C13.5859 9.25728 13.3738 9.35232 13.3095 9.4272C13.2144 9.52224 13.0829 9.58176 12.9379 9.58176C12.6471 9.58176 12.4119 9.35616 12.4119 9.06528C12.4119 8.7744 12.648 8.5392 12.9389 8.5392C13.0781 8.5392 13.2125 8.59488 13.3104 8.6928C13.3747 8.76768 13.5879 8.86368 13.6186 8.66112C13.6503 8.45952 13.6925 8.21472 13.4698 8.06592L13.0176 7.752C12.9207 7.65504 12.9207 7.4976 13.0176 7.4016C13.1146 7.30464 13.272 7.30464 13.368 7.4016L14.0688 7.88544C14.0256 8.08704 14.1639 8.82144 14.664 9.05472Z" fill="#f50500"/>
</svg>
